%TF.GenerationSoftware,KiCad,Pcbnew,9.0.7*%
%TF.CreationDate,2026-01-07T21:25:16-07:00*%
%TF.ProjectId,Servo_PDB,53657276-6f5f-4504-9442-2e6b69636164,rev?*%
%TF.SameCoordinates,Original*%
%TF.FileFunction,Copper,L1,Top*%
%TF.FilePolarity,Positive*%
%FSLAX46Y46*%
G04 Gerber Fmt 4.6, Leading zero omitted, Abs format (unit mm)*
G04 Created by KiCad (PCBNEW 9.0.7) date 2026-01-07 21:25:16*
%MOMM*%
%LPD*%
G01*
G04 APERTURE LIST*
G04 Aperture macros list*
%AMRoundRect*
0 Rectangle with rounded corners*
0 $1 Rounding radius*
0 $2 $3 $4 $5 $6 $7 $8 $9 X,Y pos of 4 corners*
0 Add a 4 corners polygon primitive as box body*
4,1,4,$2,$3,$4,$5,$6,$7,$8,$9,$2,$3,0*
0 Add four circle primitives for the rounded corners*
1,1,$1+$1,$2,$3*
1,1,$1+$1,$4,$5*
1,1,$1+$1,$6,$7*
1,1,$1+$1,$8,$9*
0 Add four rect primitives between the rounded corners*
20,1,$1+$1,$2,$3,$4,$5,0*
20,1,$1+$1,$4,$5,$6,$7,0*
20,1,$1+$1,$6,$7,$8,$9,0*
20,1,$1+$1,$8,$9,$2,$3,0*%
G04 Aperture macros list end*
%TA.AperFunction,ComponentPad*%
%ADD10C,1.600000*%
%TD*%
%TA.AperFunction,ComponentPad*%
%ADD11R,1.700000X1.700000*%
%TD*%
%TA.AperFunction,ComponentPad*%
%ADD12RoundRect,0.250000X-1.050000X-1.050000X1.050000X-1.050000X1.050000X1.050000X-1.050000X1.050000X0*%
%TD*%
%TA.AperFunction,ComponentPad*%
%ADD13C,2.600000*%
%TD*%
%TA.AperFunction,ComponentPad*%
%ADD14C,1.700000*%
%TD*%
%TA.AperFunction,ViaPad*%
%ADD15C,0.600000*%
%TD*%
%TA.AperFunction,Conductor*%
%ADD16C,0.200000*%
%TD*%
G04 APERTURE END LIST*
D10*
%TO.P,C1,1*%
%TO.N,BATT*%
X62000000Y-70000000D03*
%TO.P,C1,2*%
%TO.N,GND*%
X67000000Y-70000000D03*
%TD*%
D11*
%TO.P,J4,1,Pin_1*%
%TO.N,S1_SIG*%
X83000000Y-80000000D03*
%TD*%
D12*
%TO.P,J17,1,Pin_1*%
%TO.N,BATT*%
X67500000Y-83500000D03*
D13*
%TO.P,J17,2,Pin_2*%
%TO.N,GND*%
X72500000Y-83500000D03*
%TD*%
D11*
%TO.P,J16,1,Pin_1*%
%TO.N,S5_SIG*%
X89000000Y-66960000D03*
D14*
%TO.P,J16,2,Pin_2*%
%TO.N,BATT*%
X89000000Y-69500000D03*
%TO.P,J16,3,Pin_3*%
%TO.N,GND*%
X89000000Y-72040000D03*
%TD*%
D11*
%TO.P,J15,1,Pin_1*%
%TO.N,S4_SIG*%
X85000000Y-66920000D03*
D14*
%TO.P,J15,2,Pin_2*%
%TO.N,BATT*%
X85000000Y-69460000D03*
%TO.P,J15,3,Pin_3*%
%TO.N,GND*%
X85000000Y-72000000D03*
%TD*%
D11*
%TO.P,J14,1,Pin_1*%
%TO.N,S8_SIG*%
X101000000Y-66920000D03*
D14*
%TO.P,J14,2,Pin_2*%
%TO.N,BATT*%
X101000000Y-69460000D03*
%TO.P,J14,3,Pin_3*%
%TO.N,GND*%
X101000000Y-72000000D03*
%TD*%
D11*
%TO.P,J13,1,Pin_1*%
%TO.N,S7_SIG*%
X97000000Y-66960000D03*
D14*
%TO.P,J13,2,Pin_2*%
%TO.N,BATT*%
X97000000Y-69500000D03*
%TO.P,J13,3,Pin_3*%
%TO.N,GND*%
X97000000Y-72040000D03*
%TD*%
D11*
%TO.P,J12,1,Pin_1*%
%TO.N,S6_SIG*%
X93000000Y-66960000D03*
D14*
%TO.P,J12,2,Pin_2*%
%TO.N,BATT*%
X93000000Y-69500000D03*
%TO.P,J12,3,Pin_3*%
%TO.N,GND*%
X93000000Y-72040000D03*
%TD*%
D11*
%TO.P,J11,1,Pin_1*%
%TO.N,S3_SIG*%
X81000000Y-66920000D03*
D14*
%TO.P,J11,2,Pin_2*%
%TO.N,BATT*%
X81000000Y-69460000D03*
%TO.P,J11,3,Pin_3*%
%TO.N,GND*%
X81000000Y-72000000D03*
%TD*%
D11*
%TO.P,J9,1,Pin_1*%
%TO.N,S1_SIG*%
X73000000Y-66920000D03*
D14*
%TO.P,J9,2,Pin_2*%
%TO.N,BATT*%
X73000000Y-69460000D03*
%TO.P,J9,3,Pin_3*%
%TO.N,GND*%
X73000000Y-72000000D03*
%TD*%
D11*
%TO.P,J8,1,Pin_1*%
%TO.N,S2_SIG*%
X89000000Y-80000000D03*
%TD*%
%TO.P,J7,1,Pin_1*%
%TO.N,S4_SIG*%
X101000000Y-80000000D03*
%TD*%
%TO.P,J6,1,Pin_1*%
%TO.N,S8_SIG*%
X101000000Y-86500000D03*
%TD*%
%TO.P,J5,1,Pin_1*%
%TO.N,S6_SIG*%
X89000000Y-86500000D03*
%TD*%
%TO.P,J3,1,Pin_1*%
%TO.N,S7_SIG*%
X95000000Y-86500000D03*
%TD*%
%TO.P,J2,1,Pin_1*%
%TO.N,S5_SIG*%
X83000000Y-86500000D03*
%TD*%
%TO.P,J1,1,Pin_1*%
%TO.N,S3_SIG*%
X95000000Y-80000000D03*
%TD*%
%TO.P,J10,1,Pin_1*%
%TO.N,S2_SIG*%
X77000000Y-66920000D03*
D14*
%TO.P,J10,2,Pin_2*%
%TO.N,BATT*%
X77000000Y-69460000D03*
%TO.P,J10,3,Pin_3*%
%TO.N,GND*%
X77000000Y-72000000D03*
%TD*%
D15*
%TO.N,S3_SIG*%
X94137200Y-68258400D03*
%TD*%
D16*
%TO.N,GND*%
X77000000Y-72000000D02*
X81000000Y-72000000D01*
%TO.N,BATT*%
X89000000Y-69500000D02*
X93000000Y-69500000D01*
X81000000Y-69460000D02*
X77000000Y-69460000D01*
X97040000Y-69460000D02*
X97000000Y-69500000D01*
X101000000Y-69460000D02*
X97040000Y-69460000D01*
X73000000Y-69460000D02*
X77000000Y-69460000D01*
X63105600Y-68894400D02*
X62000000Y-70000000D01*
X72434400Y-68894400D02*
X63105600Y-68894400D01*
X73000000Y-69460000D02*
X72434400Y-68894400D01*
X93000000Y-69500000D02*
X97000000Y-69500000D01*
%TO.N,GND*%
X73000000Y-72000000D02*
X77000000Y-72000000D01*
X69000000Y-72000000D02*
X73000000Y-72000000D01*
X67000000Y-70000000D02*
X69000000Y-72000000D01*
X93000000Y-72040000D02*
X97000000Y-72040000D01*
X100960000Y-72040000D02*
X101000000Y-72000000D01*
X97000000Y-72040000D02*
X100960000Y-72040000D01*
X93000000Y-72040000D02*
X89000000Y-72040000D01*
%TO.N,S3_SIG*%
X81000000Y-66920000D02*
X82151700Y-66920000D01*
X83490100Y-68258400D02*
X94137200Y-68258400D01*
X82151700Y-66920000D02*
X83490100Y-68258400D01*
%TD*%
M02*
