%TF.GenerationSoftware,KiCad,Pcbnew,9.0.7*%
%TF.CreationDate,2026-01-07T21:25:16-07:00*%
%TF.ProjectId,Servo_PDB,53657276-6f5f-4504-9442-2e6b69636164,rev?*%
%TF.SameCoordinates,Original*%
%TF.FileFunction,Copper,L2,Bot*%
%TF.FilePolarity,Positive*%
%FSLAX46Y46*%
G04 Gerber Fmt 4.6, Leading zero omitted, Abs format (unit mm)*
G04 Created by KiCad (PCBNEW 9.0.7) date 2026-01-07 21:25:16*
%MOMM*%
%LPD*%
G01*
G04 APERTURE LIST*
G04 Aperture macros list*
%AMRoundRect*
0 Rectangle with rounded corners*
0 $1 Rounding radius*
0 $2 $3 $4 $5 $6 $7 $8 $9 X,Y pos of 4 corners*
0 Add a 4 corners polygon primitive as box body*
4,1,4,$2,$3,$4,$5,$6,$7,$8,$9,$2,$3,0*
0 Add four circle primitives for the rounded corners*
1,1,$1+$1,$2,$3*
1,1,$1+$1,$4,$5*
1,1,$1+$1,$6,$7*
1,1,$1+$1,$8,$9*
0 Add four rect primitives between the rounded corners*
20,1,$1+$1,$2,$3,$4,$5,0*
20,1,$1+$1,$4,$5,$6,$7,0*
20,1,$1+$1,$6,$7,$8,$9,0*
20,1,$1+$1,$8,$9,$2,$3,0*%
G04 Aperture macros list end*
%TA.AperFunction,ComponentPad*%
%ADD10C,1.600000*%
%TD*%
%TA.AperFunction,ComponentPad*%
%ADD11R,1.700000X1.700000*%
%TD*%
%TA.AperFunction,ComponentPad*%
%ADD12RoundRect,0.250000X-1.050000X-1.050000X1.050000X-1.050000X1.050000X1.050000X-1.050000X1.050000X0*%
%TD*%
%TA.AperFunction,ComponentPad*%
%ADD13C,2.600000*%
%TD*%
%TA.AperFunction,ComponentPad*%
%ADD14C,1.700000*%
%TD*%
%TA.AperFunction,ViaPad*%
%ADD15C,0.600000*%
%TD*%
%TA.AperFunction,Conductor*%
%ADD16C,0.200000*%
%TD*%
G04 APERTURE END LIST*
D10*
%TO.P,C1,1*%
%TO.N,BATT*%
X62000000Y-70000000D03*
%TO.P,C1,2*%
%TO.N,GND*%
X67000000Y-70000000D03*
%TD*%
D11*
%TO.P,J4,1,Pin_1*%
%TO.N,S1_SIG*%
X83000000Y-80000000D03*
%TD*%
D12*
%TO.P,J17,1,Pin_1*%
%TO.N,BATT*%
X67500000Y-83500000D03*
D13*
%TO.P,J17,2,Pin_2*%
%TO.N,GND*%
X72500000Y-83500000D03*
%TD*%
D11*
%TO.P,J16,1,Pin_1*%
%TO.N,S5_SIG*%
X89000000Y-66960000D03*
D14*
%TO.P,J16,2,Pin_2*%
%TO.N,BATT*%
X89000000Y-69500000D03*
%TO.P,J16,3,Pin_3*%
%TO.N,GND*%
X89000000Y-72040000D03*
%TD*%
D11*
%TO.P,J15,1,Pin_1*%
%TO.N,S4_SIG*%
X85000000Y-66920000D03*
D14*
%TO.P,J15,2,Pin_2*%
%TO.N,BATT*%
X85000000Y-69460000D03*
%TO.P,J15,3,Pin_3*%
%TO.N,GND*%
X85000000Y-72000000D03*
%TD*%
D11*
%TO.P,J14,1,Pin_1*%
%TO.N,S8_SIG*%
X101000000Y-66920000D03*
D14*
%TO.P,J14,2,Pin_2*%
%TO.N,BATT*%
X101000000Y-69460000D03*
%TO.P,J14,3,Pin_3*%
%TO.N,GND*%
X101000000Y-72000000D03*
%TD*%
D11*
%TO.P,J13,1,Pin_1*%
%TO.N,S7_SIG*%
X97000000Y-66960000D03*
D14*
%TO.P,J13,2,Pin_2*%
%TO.N,BATT*%
X97000000Y-69500000D03*
%TO.P,J13,3,Pin_3*%
%TO.N,GND*%
X97000000Y-72040000D03*
%TD*%
D11*
%TO.P,J12,1,Pin_1*%
%TO.N,S6_SIG*%
X93000000Y-66960000D03*
D14*
%TO.P,J12,2,Pin_2*%
%TO.N,BATT*%
X93000000Y-69500000D03*
%TO.P,J12,3,Pin_3*%
%TO.N,GND*%
X93000000Y-72040000D03*
%TD*%
D11*
%TO.P,J11,1,Pin_1*%
%TO.N,S3_SIG*%
X81000000Y-66920000D03*
D14*
%TO.P,J11,2,Pin_2*%
%TO.N,BATT*%
X81000000Y-69460000D03*
%TO.P,J11,3,Pin_3*%
%TO.N,GND*%
X81000000Y-72000000D03*
%TD*%
D11*
%TO.P,J9,1,Pin_1*%
%TO.N,S1_SIG*%
X73000000Y-66920000D03*
D14*
%TO.P,J9,2,Pin_2*%
%TO.N,BATT*%
X73000000Y-69460000D03*
%TO.P,J9,3,Pin_3*%
%TO.N,GND*%
X73000000Y-72000000D03*
%TD*%
D11*
%TO.P,J8,1,Pin_1*%
%TO.N,S2_SIG*%
X89000000Y-80000000D03*
%TD*%
%TO.P,J7,1,Pin_1*%
%TO.N,S4_SIG*%
X101000000Y-80000000D03*
%TD*%
%TO.P,J6,1,Pin_1*%
%TO.N,S8_SIG*%
X101000000Y-86500000D03*
%TD*%
%TO.P,J5,1,Pin_1*%
%TO.N,S6_SIG*%
X89000000Y-86500000D03*
%TD*%
%TO.P,J3,1,Pin_1*%
%TO.N,S7_SIG*%
X95000000Y-86500000D03*
%TD*%
%TO.P,J2,1,Pin_1*%
%TO.N,S5_SIG*%
X83000000Y-86500000D03*
%TD*%
%TO.P,J1,1,Pin_1*%
%TO.N,S3_SIG*%
X95000000Y-80000000D03*
%TD*%
%TO.P,J10,1,Pin_1*%
%TO.N,S2_SIG*%
X77000000Y-66920000D03*
D14*
%TO.P,J10,2,Pin_2*%
%TO.N,BATT*%
X77000000Y-69460000D03*
%TO.P,J10,3,Pin_3*%
%TO.N,GND*%
X77000000Y-72000000D03*
%TD*%
D15*
%TO.N,S3_SIG*%
X94137200Y-68258400D03*
%TD*%
D16*
%TO.N,S4_SIG*%
X98151000Y-65809000D02*
X86111000Y-65809000D01*
X98500000Y-66158000D02*
X98151000Y-65809000D01*
X86111000Y-65809000D02*
X85000000Y-66920000D01*
X98500000Y-77500000D02*
X98500000Y-66158000D01*
X101000000Y-80000000D02*
X98500000Y-77500000D01*
%TO.N,S8_SIG*%
X102151700Y-68071700D02*
X101000000Y-66920000D01*
X102151700Y-84196600D02*
X102151700Y-68071700D01*
X101000000Y-85348300D02*
X102151700Y-84196600D01*
X101000000Y-86500000D02*
X101000000Y-85348300D01*
%TO.N,S7_SIG*%
X95849000Y-68111000D02*
X97000000Y-66960000D01*
X95849000Y-75697300D02*
X95849000Y-68111000D01*
X96151700Y-76000000D02*
X95849000Y-75697300D01*
%TO.N,S6_SIG*%
X91446700Y-68513300D02*
X93000000Y-66960000D01*
X91446700Y-82901600D02*
X91446700Y-68513300D01*
X89000000Y-85348300D02*
X91446700Y-82901600D01*
X89000000Y-86500000D02*
X89000000Y-85348300D01*
%TO.N,S5_SIG*%
X84694400Y-86500000D02*
X90151700Y-81042700D01*
X90151700Y-81042700D02*
X90151700Y-68111700D01*
X83000000Y-86500000D02*
X84694400Y-86500000D01*
X90151700Y-68111700D02*
X89000000Y-66960000D01*
%TO.N,S2_SIG*%
X81270200Y-70611000D02*
X80479600Y-70611000D01*
X77000000Y-67131400D02*
X77000000Y-66920000D01*
X89000000Y-78340800D02*
X81270200Y-70611000D01*
X80479600Y-70611000D02*
X77000000Y-67131400D01*
X89000000Y-80000000D02*
X89000000Y-78340800D01*
%TO.N,S1_SIG*%
X74708900Y-71349000D02*
X74708900Y-68628900D01*
X74708900Y-68628900D02*
X73000000Y-66920000D01*
X82208200Y-78848300D02*
X74708900Y-71349000D01*
X83000000Y-78848300D02*
X82208200Y-78848300D01*
X83000000Y-80000000D02*
X83000000Y-78848300D01*
%TO.N,S7_SIG*%
X96151700Y-84196600D02*
X95000000Y-85348300D01*
X96151700Y-76000000D02*
X96151700Y-84196600D01*
X95000000Y-86500000D02*
X95000000Y-85348300D01*
%TO.N,BATT*%
X62000000Y-78000000D02*
X67500000Y-83500000D01*
X62000000Y-70000000D02*
X62000000Y-78000000D01*
%TO.N,GND*%
X72500000Y-72500000D02*
X73000000Y-72000000D01*
X72500000Y-83500000D02*
X72500000Y-72500000D01*
%TO.N,S3_SIG*%
X95000000Y-80000000D02*
X95000000Y-78848300D01*
X95018200Y-78830100D02*
X95000000Y-78848300D01*
X95018200Y-69139400D02*
X94137200Y-68258400D01*
X95018200Y-69139400D02*
X95018200Y-78830100D01*
%TD*%
M02*
