%TF.GenerationSoftware,KiCad,Pcbnew,9.0.7*%
%TF.CreationDate,2026-01-07T21:25:16-07:00*%
%TF.ProjectId,Servo_PDB,53657276-6f5f-4504-9442-2e6b69636164,rev?*%
%TF.SameCoordinates,Original*%
%TF.FileFunction,Legend,Top*%
%TF.FilePolarity,Positive*%
%FSLAX46Y46*%
G04 Gerber Fmt 4.6, Leading zero omitted, Abs format (unit mm)*
G04 Created by KiCad (PCBNEW 9.0.7) date 2026-01-07 21:25:16*
%MOMM*%
%LPD*%
G01*
G04 APERTURE LIST*
%ADD10C,0.150000*%
%ADD11C,0.120000*%
G04 APERTURE END LIST*
D10*
X64333333Y-64109580D02*
X64285714Y-64157200D01*
X64285714Y-64157200D02*
X64142857Y-64204819D01*
X64142857Y-64204819D02*
X64047619Y-64204819D01*
X64047619Y-64204819D02*
X63904762Y-64157200D01*
X63904762Y-64157200D02*
X63809524Y-64061961D01*
X63809524Y-64061961D02*
X63761905Y-63966723D01*
X63761905Y-63966723D02*
X63714286Y-63776247D01*
X63714286Y-63776247D02*
X63714286Y-63633390D01*
X63714286Y-63633390D02*
X63761905Y-63442914D01*
X63761905Y-63442914D02*
X63809524Y-63347676D01*
X63809524Y-63347676D02*
X63904762Y-63252438D01*
X63904762Y-63252438D02*
X64047619Y-63204819D01*
X64047619Y-63204819D02*
X64142857Y-63204819D01*
X64142857Y-63204819D02*
X64285714Y-63252438D01*
X64285714Y-63252438D02*
X64333333Y-63300057D01*
X65285714Y-64204819D02*
X64714286Y-64204819D01*
X65000000Y-64204819D02*
X65000000Y-63204819D01*
X65000000Y-63204819D02*
X64904762Y-63347676D01*
X64904762Y-63347676D02*
X64809524Y-63442914D01*
X64809524Y-63442914D02*
X64714286Y-63490533D01*
X82666666Y-77074819D02*
X82666666Y-77789104D01*
X82666666Y-77789104D02*
X82619047Y-77931961D01*
X82619047Y-77931961D02*
X82523809Y-78027200D01*
X82523809Y-78027200D02*
X82380952Y-78074819D01*
X82380952Y-78074819D02*
X82285714Y-78074819D01*
X83571428Y-77408152D02*
X83571428Y-78074819D01*
X83333333Y-77027200D02*
X83095238Y-77741485D01*
X83095238Y-77741485D02*
X83714285Y-77741485D01*
X69190476Y-76634819D02*
X69190476Y-77349104D01*
X69190476Y-77349104D02*
X69142857Y-77491961D01*
X69142857Y-77491961D02*
X69047619Y-77587200D01*
X69047619Y-77587200D02*
X68904762Y-77634819D01*
X68904762Y-77634819D02*
X68809524Y-77634819D01*
X70190476Y-77634819D02*
X69619048Y-77634819D01*
X69904762Y-77634819D02*
X69904762Y-76634819D01*
X69904762Y-76634819D02*
X69809524Y-76777676D01*
X69809524Y-76777676D02*
X69714286Y-76872914D01*
X69714286Y-76872914D02*
X69619048Y-76920533D01*
X70523810Y-76634819D02*
X71190476Y-76634819D01*
X71190476Y-76634819D02*
X70761905Y-77634819D01*
X88190476Y-64034819D02*
X88190476Y-64749104D01*
X88190476Y-64749104D02*
X88142857Y-64891961D01*
X88142857Y-64891961D02*
X88047619Y-64987200D01*
X88047619Y-64987200D02*
X87904762Y-65034819D01*
X87904762Y-65034819D02*
X87809524Y-65034819D01*
X89190476Y-65034819D02*
X88619048Y-65034819D01*
X88904762Y-65034819D02*
X88904762Y-64034819D01*
X88904762Y-64034819D02*
X88809524Y-64177676D01*
X88809524Y-64177676D02*
X88714286Y-64272914D01*
X88714286Y-64272914D02*
X88619048Y-64320533D01*
X90047619Y-64034819D02*
X89857143Y-64034819D01*
X89857143Y-64034819D02*
X89761905Y-64082438D01*
X89761905Y-64082438D02*
X89714286Y-64130057D01*
X89714286Y-64130057D02*
X89619048Y-64272914D01*
X89619048Y-64272914D02*
X89571429Y-64463390D01*
X89571429Y-64463390D02*
X89571429Y-64844342D01*
X89571429Y-64844342D02*
X89619048Y-64939580D01*
X89619048Y-64939580D02*
X89666667Y-64987200D01*
X89666667Y-64987200D02*
X89761905Y-65034819D01*
X89761905Y-65034819D02*
X89952381Y-65034819D01*
X89952381Y-65034819D02*
X90047619Y-64987200D01*
X90047619Y-64987200D02*
X90095238Y-64939580D01*
X90095238Y-64939580D02*
X90142857Y-64844342D01*
X90142857Y-64844342D02*
X90142857Y-64606247D01*
X90142857Y-64606247D02*
X90095238Y-64511009D01*
X90095238Y-64511009D02*
X90047619Y-64463390D01*
X90047619Y-64463390D02*
X89952381Y-64415771D01*
X89952381Y-64415771D02*
X89761905Y-64415771D01*
X89761905Y-64415771D02*
X89666667Y-64463390D01*
X89666667Y-64463390D02*
X89619048Y-64511009D01*
X89619048Y-64511009D02*
X89571429Y-64606247D01*
X84190476Y-63994819D02*
X84190476Y-64709104D01*
X84190476Y-64709104D02*
X84142857Y-64851961D01*
X84142857Y-64851961D02*
X84047619Y-64947200D01*
X84047619Y-64947200D02*
X83904762Y-64994819D01*
X83904762Y-64994819D02*
X83809524Y-64994819D01*
X85190476Y-64994819D02*
X84619048Y-64994819D01*
X84904762Y-64994819D02*
X84904762Y-63994819D01*
X84904762Y-63994819D02*
X84809524Y-64137676D01*
X84809524Y-64137676D02*
X84714286Y-64232914D01*
X84714286Y-64232914D02*
X84619048Y-64280533D01*
X86095238Y-63994819D02*
X85619048Y-63994819D01*
X85619048Y-63994819D02*
X85571429Y-64471009D01*
X85571429Y-64471009D02*
X85619048Y-64423390D01*
X85619048Y-64423390D02*
X85714286Y-64375771D01*
X85714286Y-64375771D02*
X85952381Y-64375771D01*
X85952381Y-64375771D02*
X86047619Y-64423390D01*
X86047619Y-64423390D02*
X86095238Y-64471009D01*
X86095238Y-64471009D02*
X86142857Y-64566247D01*
X86142857Y-64566247D02*
X86142857Y-64804342D01*
X86142857Y-64804342D02*
X86095238Y-64899580D01*
X86095238Y-64899580D02*
X86047619Y-64947200D01*
X86047619Y-64947200D02*
X85952381Y-64994819D01*
X85952381Y-64994819D02*
X85714286Y-64994819D01*
X85714286Y-64994819D02*
X85619048Y-64947200D01*
X85619048Y-64947200D02*
X85571429Y-64899580D01*
X100190476Y-63994819D02*
X100190476Y-64709104D01*
X100190476Y-64709104D02*
X100142857Y-64851961D01*
X100142857Y-64851961D02*
X100047619Y-64947200D01*
X100047619Y-64947200D02*
X99904762Y-64994819D01*
X99904762Y-64994819D02*
X99809524Y-64994819D01*
X101190476Y-64994819D02*
X100619048Y-64994819D01*
X100904762Y-64994819D02*
X100904762Y-63994819D01*
X100904762Y-63994819D02*
X100809524Y-64137676D01*
X100809524Y-64137676D02*
X100714286Y-64232914D01*
X100714286Y-64232914D02*
X100619048Y-64280533D01*
X102047619Y-64328152D02*
X102047619Y-64994819D01*
X101809524Y-63947200D02*
X101571429Y-64661485D01*
X101571429Y-64661485D02*
X102190476Y-64661485D01*
X96190476Y-64034819D02*
X96190476Y-64749104D01*
X96190476Y-64749104D02*
X96142857Y-64891961D01*
X96142857Y-64891961D02*
X96047619Y-64987200D01*
X96047619Y-64987200D02*
X95904762Y-65034819D01*
X95904762Y-65034819D02*
X95809524Y-65034819D01*
X97190476Y-65034819D02*
X96619048Y-65034819D01*
X96904762Y-65034819D02*
X96904762Y-64034819D01*
X96904762Y-64034819D02*
X96809524Y-64177676D01*
X96809524Y-64177676D02*
X96714286Y-64272914D01*
X96714286Y-64272914D02*
X96619048Y-64320533D01*
X97523810Y-64034819D02*
X98142857Y-64034819D01*
X98142857Y-64034819D02*
X97809524Y-64415771D01*
X97809524Y-64415771D02*
X97952381Y-64415771D01*
X97952381Y-64415771D02*
X98047619Y-64463390D01*
X98047619Y-64463390D02*
X98095238Y-64511009D01*
X98095238Y-64511009D02*
X98142857Y-64606247D01*
X98142857Y-64606247D02*
X98142857Y-64844342D01*
X98142857Y-64844342D02*
X98095238Y-64939580D01*
X98095238Y-64939580D02*
X98047619Y-64987200D01*
X98047619Y-64987200D02*
X97952381Y-65034819D01*
X97952381Y-65034819D02*
X97666667Y-65034819D01*
X97666667Y-65034819D02*
X97571429Y-64987200D01*
X97571429Y-64987200D02*
X97523810Y-64939580D01*
X92190476Y-64034819D02*
X92190476Y-64749104D01*
X92190476Y-64749104D02*
X92142857Y-64891961D01*
X92142857Y-64891961D02*
X92047619Y-64987200D01*
X92047619Y-64987200D02*
X91904762Y-65034819D01*
X91904762Y-65034819D02*
X91809524Y-65034819D01*
X93190476Y-65034819D02*
X92619048Y-65034819D01*
X92904762Y-65034819D02*
X92904762Y-64034819D01*
X92904762Y-64034819D02*
X92809524Y-64177676D01*
X92809524Y-64177676D02*
X92714286Y-64272914D01*
X92714286Y-64272914D02*
X92619048Y-64320533D01*
X93571429Y-64130057D02*
X93619048Y-64082438D01*
X93619048Y-64082438D02*
X93714286Y-64034819D01*
X93714286Y-64034819D02*
X93952381Y-64034819D01*
X93952381Y-64034819D02*
X94047619Y-64082438D01*
X94047619Y-64082438D02*
X94095238Y-64130057D01*
X94095238Y-64130057D02*
X94142857Y-64225295D01*
X94142857Y-64225295D02*
X94142857Y-64320533D01*
X94142857Y-64320533D02*
X94095238Y-64463390D01*
X94095238Y-64463390D02*
X93523810Y-65034819D01*
X93523810Y-65034819D02*
X94142857Y-65034819D01*
X80190476Y-63994819D02*
X80190476Y-64709104D01*
X80190476Y-64709104D02*
X80142857Y-64851961D01*
X80142857Y-64851961D02*
X80047619Y-64947200D01*
X80047619Y-64947200D02*
X79904762Y-64994819D01*
X79904762Y-64994819D02*
X79809524Y-64994819D01*
X81190476Y-64994819D02*
X80619048Y-64994819D01*
X80904762Y-64994819D02*
X80904762Y-63994819D01*
X80904762Y-63994819D02*
X80809524Y-64137676D01*
X80809524Y-64137676D02*
X80714286Y-64232914D01*
X80714286Y-64232914D02*
X80619048Y-64280533D01*
X82142857Y-64994819D02*
X81571429Y-64994819D01*
X81857143Y-64994819D02*
X81857143Y-63994819D01*
X81857143Y-63994819D02*
X81761905Y-64137676D01*
X81761905Y-64137676D02*
X81666667Y-64232914D01*
X81666667Y-64232914D02*
X81571429Y-64280533D01*
X72666666Y-63994819D02*
X72666666Y-64709104D01*
X72666666Y-64709104D02*
X72619047Y-64851961D01*
X72619047Y-64851961D02*
X72523809Y-64947200D01*
X72523809Y-64947200D02*
X72380952Y-64994819D01*
X72380952Y-64994819D02*
X72285714Y-64994819D01*
X73190476Y-64994819D02*
X73380952Y-64994819D01*
X73380952Y-64994819D02*
X73476190Y-64947200D01*
X73476190Y-64947200D02*
X73523809Y-64899580D01*
X73523809Y-64899580D02*
X73619047Y-64756723D01*
X73619047Y-64756723D02*
X73666666Y-64566247D01*
X73666666Y-64566247D02*
X73666666Y-64185295D01*
X73666666Y-64185295D02*
X73619047Y-64090057D01*
X73619047Y-64090057D02*
X73571428Y-64042438D01*
X73571428Y-64042438D02*
X73476190Y-63994819D01*
X73476190Y-63994819D02*
X73285714Y-63994819D01*
X73285714Y-63994819D02*
X73190476Y-64042438D01*
X73190476Y-64042438D02*
X73142857Y-64090057D01*
X73142857Y-64090057D02*
X73095238Y-64185295D01*
X73095238Y-64185295D02*
X73095238Y-64423390D01*
X73095238Y-64423390D02*
X73142857Y-64518628D01*
X73142857Y-64518628D02*
X73190476Y-64566247D01*
X73190476Y-64566247D02*
X73285714Y-64613866D01*
X73285714Y-64613866D02*
X73476190Y-64613866D01*
X73476190Y-64613866D02*
X73571428Y-64566247D01*
X73571428Y-64566247D02*
X73619047Y-64518628D01*
X73619047Y-64518628D02*
X73666666Y-64423390D01*
X88666666Y-77074819D02*
X88666666Y-77789104D01*
X88666666Y-77789104D02*
X88619047Y-77931961D01*
X88619047Y-77931961D02*
X88523809Y-78027200D01*
X88523809Y-78027200D02*
X88380952Y-78074819D01*
X88380952Y-78074819D02*
X88285714Y-78074819D01*
X89285714Y-77503390D02*
X89190476Y-77455771D01*
X89190476Y-77455771D02*
X89142857Y-77408152D01*
X89142857Y-77408152D02*
X89095238Y-77312914D01*
X89095238Y-77312914D02*
X89095238Y-77265295D01*
X89095238Y-77265295D02*
X89142857Y-77170057D01*
X89142857Y-77170057D02*
X89190476Y-77122438D01*
X89190476Y-77122438D02*
X89285714Y-77074819D01*
X89285714Y-77074819D02*
X89476190Y-77074819D01*
X89476190Y-77074819D02*
X89571428Y-77122438D01*
X89571428Y-77122438D02*
X89619047Y-77170057D01*
X89619047Y-77170057D02*
X89666666Y-77265295D01*
X89666666Y-77265295D02*
X89666666Y-77312914D01*
X89666666Y-77312914D02*
X89619047Y-77408152D01*
X89619047Y-77408152D02*
X89571428Y-77455771D01*
X89571428Y-77455771D02*
X89476190Y-77503390D01*
X89476190Y-77503390D02*
X89285714Y-77503390D01*
X89285714Y-77503390D02*
X89190476Y-77551009D01*
X89190476Y-77551009D02*
X89142857Y-77598628D01*
X89142857Y-77598628D02*
X89095238Y-77693866D01*
X89095238Y-77693866D02*
X89095238Y-77884342D01*
X89095238Y-77884342D02*
X89142857Y-77979580D01*
X89142857Y-77979580D02*
X89190476Y-78027200D01*
X89190476Y-78027200D02*
X89285714Y-78074819D01*
X89285714Y-78074819D02*
X89476190Y-78074819D01*
X89476190Y-78074819D02*
X89571428Y-78027200D01*
X89571428Y-78027200D02*
X89619047Y-77979580D01*
X89619047Y-77979580D02*
X89666666Y-77884342D01*
X89666666Y-77884342D02*
X89666666Y-77693866D01*
X89666666Y-77693866D02*
X89619047Y-77598628D01*
X89619047Y-77598628D02*
X89571428Y-77551009D01*
X89571428Y-77551009D02*
X89476190Y-77503390D01*
X100666666Y-77074819D02*
X100666666Y-77789104D01*
X100666666Y-77789104D02*
X100619047Y-77931961D01*
X100619047Y-77931961D02*
X100523809Y-78027200D01*
X100523809Y-78027200D02*
X100380952Y-78074819D01*
X100380952Y-78074819D02*
X100285714Y-78074819D01*
X101047619Y-77074819D02*
X101714285Y-77074819D01*
X101714285Y-77074819D02*
X101285714Y-78074819D01*
X100666666Y-83574819D02*
X100666666Y-84289104D01*
X100666666Y-84289104D02*
X100619047Y-84431961D01*
X100619047Y-84431961D02*
X100523809Y-84527200D01*
X100523809Y-84527200D02*
X100380952Y-84574819D01*
X100380952Y-84574819D02*
X100285714Y-84574819D01*
X101571428Y-83574819D02*
X101380952Y-83574819D01*
X101380952Y-83574819D02*
X101285714Y-83622438D01*
X101285714Y-83622438D02*
X101238095Y-83670057D01*
X101238095Y-83670057D02*
X101142857Y-83812914D01*
X101142857Y-83812914D02*
X101095238Y-84003390D01*
X101095238Y-84003390D02*
X101095238Y-84384342D01*
X101095238Y-84384342D02*
X101142857Y-84479580D01*
X101142857Y-84479580D02*
X101190476Y-84527200D01*
X101190476Y-84527200D02*
X101285714Y-84574819D01*
X101285714Y-84574819D02*
X101476190Y-84574819D01*
X101476190Y-84574819D02*
X101571428Y-84527200D01*
X101571428Y-84527200D02*
X101619047Y-84479580D01*
X101619047Y-84479580D02*
X101666666Y-84384342D01*
X101666666Y-84384342D02*
X101666666Y-84146247D01*
X101666666Y-84146247D02*
X101619047Y-84051009D01*
X101619047Y-84051009D02*
X101571428Y-84003390D01*
X101571428Y-84003390D02*
X101476190Y-83955771D01*
X101476190Y-83955771D02*
X101285714Y-83955771D01*
X101285714Y-83955771D02*
X101190476Y-84003390D01*
X101190476Y-84003390D02*
X101142857Y-84051009D01*
X101142857Y-84051009D02*
X101095238Y-84146247D01*
X88666666Y-83574819D02*
X88666666Y-84289104D01*
X88666666Y-84289104D02*
X88619047Y-84431961D01*
X88619047Y-84431961D02*
X88523809Y-84527200D01*
X88523809Y-84527200D02*
X88380952Y-84574819D01*
X88380952Y-84574819D02*
X88285714Y-84574819D01*
X89619047Y-83574819D02*
X89142857Y-83574819D01*
X89142857Y-83574819D02*
X89095238Y-84051009D01*
X89095238Y-84051009D02*
X89142857Y-84003390D01*
X89142857Y-84003390D02*
X89238095Y-83955771D01*
X89238095Y-83955771D02*
X89476190Y-83955771D01*
X89476190Y-83955771D02*
X89571428Y-84003390D01*
X89571428Y-84003390D02*
X89619047Y-84051009D01*
X89619047Y-84051009D02*
X89666666Y-84146247D01*
X89666666Y-84146247D02*
X89666666Y-84384342D01*
X89666666Y-84384342D02*
X89619047Y-84479580D01*
X89619047Y-84479580D02*
X89571428Y-84527200D01*
X89571428Y-84527200D02*
X89476190Y-84574819D01*
X89476190Y-84574819D02*
X89238095Y-84574819D01*
X89238095Y-84574819D02*
X89142857Y-84527200D01*
X89142857Y-84527200D02*
X89095238Y-84479580D01*
X94666666Y-83574819D02*
X94666666Y-84289104D01*
X94666666Y-84289104D02*
X94619047Y-84431961D01*
X94619047Y-84431961D02*
X94523809Y-84527200D01*
X94523809Y-84527200D02*
X94380952Y-84574819D01*
X94380952Y-84574819D02*
X94285714Y-84574819D01*
X95047619Y-83574819D02*
X95666666Y-83574819D01*
X95666666Y-83574819D02*
X95333333Y-83955771D01*
X95333333Y-83955771D02*
X95476190Y-83955771D01*
X95476190Y-83955771D02*
X95571428Y-84003390D01*
X95571428Y-84003390D02*
X95619047Y-84051009D01*
X95619047Y-84051009D02*
X95666666Y-84146247D01*
X95666666Y-84146247D02*
X95666666Y-84384342D01*
X95666666Y-84384342D02*
X95619047Y-84479580D01*
X95619047Y-84479580D02*
X95571428Y-84527200D01*
X95571428Y-84527200D02*
X95476190Y-84574819D01*
X95476190Y-84574819D02*
X95190476Y-84574819D01*
X95190476Y-84574819D02*
X95095238Y-84527200D01*
X95095238Y-84527200D02*
X95047619Y-84479580D01*
X82666666Y-83574819D02*
X82666666Y-84289104D01*
X82666666Y-84289104D02*
X82619047Y-84431961D01*
X82619047Y-84431961D02*
X82523809Y-84527200D01*
X82523809Y-84527200D02*
X82380952Y-84574819D01*
X82380952Y-84574819D02*
X82285714Y-84574819D01*
X83095238Y-83670057D02*
X83142857Y-83622438D01*
X83142857Y-83622438D02*
X83238095Y-83574819D01*
X83238095Y-83574819D02*
X83476190Y-83574819D01*
X83476190Y-83574819D02*
X83571428Y-83622438D01*
X83571428Y-83622438D02*
X83619047Y-83670057D01*
X83619047Y-83670057D02*
X83666666Y-83765295D01*
X83666666Y-83765295D02*
X83666666Y-83860533D01*
X83666666Y-83860533D02*
X83619047Y-84003390D01*
X83619047Y-84003390D02*
X83047619Y-84574819D01*
X83047619Y-84574819D02*
X83666666Y-84574819D01*
X94666666Y-77074819D02*
X94666666Y-77789104D01*
X94666666Y-77789104D02*
X94619047Y-77931961D01*
X94619047Y-77931961D02*
X94523809Y-78027200D01*
X94523809Y-78027200D02*
X94380952Y-78074819D01*
X94380952Y-78074819D02*
X94285714Y-78074819D01*
X95666666Y-78074819D02*
X95095238Y-78074819D01*
X95380952Y-78074819D02*
X95380952Y-77074819D01*
X95380952Y-77074819D02*
X95285714Y-77217676D01*
X95285714Y-77217676D02*
X95190476Y-77312914D01*
X95190476Y-77312914D02*
X95095238Y-77360533D01*
X76190476Y-63994819D02*
X76190476Y-64709104D01*
X76190476Y-64709104D02*
X76142857Y-64851961D01*
X76142857Y-64851961D02*
X76047619Y-64947200D01*
X76047619Y-64947200D02*
X75904762Y-64994819D01*
X75904762Y-64994819D02*
X75809524Y-64994819D01*
X77190476Y-64994819D02*
X76619048Y-64994819D01*
X76904762Y-64994819D02*
X76904762Y-63994819D01*
X76904762Y-63994819D02*
X76809524Y-64137676D01*
X76809524Y-64137676D02*
X76714286Y-64232914D01*
X76714286Y-64232914D02*
X76619048Y-64280533D01*
X77809524Y-63994819D02*
X77904762Y-63994819D01*
X77904762Y-63994819D02*
X78000000Y-64042438D01*
X78000000Y-64042438D02*
X78047619Y-64090057D01*
X78047619Y-64090057D02*
X78095238Y-64185295D01*
X78095238Y-64185295D02*
X78142857Y-64375771D01*
X78142857Y-64375771D02*
X78142857Y-64613866D01*
X78142857Y-64613866D02*
X78095238Y-64804342D01*
X78095238Y-64804342D02*
X78047619Y-64899580D01*
X78047619Y-64899580D02*
X78000000Y-64947200D01*
X78000000Y-64947200D02*
X77904762Y-64994819D01*
X77904762Y-64994819D02*
X77809524Y-64994819D01*
X77809524Y-64994819D02*
X77714286Y-64947200D01*
X77714286Y-64947200D02*
X77666667Y-64899580D01*
X77666667Y-64899580D02*
X77619048Y-64804342D01*
X77619048Y-64804342D02*
X77571429Y-64613866D01*
X77571429Y-64613866D02*
X77571429Y-64375771D01*
X77571429Y-64375771D02*
X77619048Y-64185295D01*
X77619048Y-64185295D02*
X77666667Y-64090057D01*
X77666667Y-64090057D02*
X77714286Y-64042438D01*
X77714286Y-64042438D02*
X77809524Y-63994819D01*
D11*
%TO.C,C1*%
X69620000Y-70000000D02*
G75*
G02*
X59380000Y-70000000I-5120000J0D01*
G01*
X59380000Y-70000000D02*
G75*
G02*
X69620000Y-70000000I5120000J0D01*
G01*
%TO.C,J4*%
X81620000Y-78620000D02*
X83000000Y-78620000D01*
X81620000Y-80000000D02*
X81620000Y-78620000D01*
X81620000Y-81270000D02*
X81620000Y-81380000D01*
X81620000Y-81270000D02*
X84380000Y-81270000D01*
X81620000Y-81380000D02*
X84380000Y-81380000D01*
X84380000Y-81270000D02*
X84380000Y-81380000D01*
%TO.C,J17*%
X64880000Y-78180000D02*
X75120000Y-78180000D01*
X64880000Y-81200000D02*
X75120000Y-81200000D01*
X64880000Y-86100000D02*
X75120000Y-86100000D01*
X64880000Y-87600000D02*
X75120000Y-87600000D01*
X64880000Y-88220000D02*
X64880000Y-78180000D01*
X67200000Y-88220000D02*
X64880000Y-88220000D01*
X75120000Y-78180000D02*
X75120000Y-88220000D01*
X75120000Y-88220000D02*
X67800000Y-88220000D01*
X67940000Y-88830000D02*
X67060000Y-88830000D01*
X67500000Y-88220000D01*
X67940000Y-88830000D01*
G36*
X67940000Y-88830000D02*
G01*
X67060000Y-88830000D01*
X67500000Y-88220000D01*
X67940000Y-88830000D01*
G37*
%TO.C,J16*%
X87620000Y-65580000D02*
X89000000Y-65580000D01*
X87620000Y-66960000D02*
X87620000Y-65580000D01*
X87620000Y-68230000D02*
X87620000Y-73420000D01*
X87620000Y-68230000D02*
X90380000Y-68230000D01*
X87620000Y-73420000D02*
X90380000Y-73420000D01*
X90380000Y-68230000D02*
X90380000Y-73420000D01*
%TO.C,J15*%
X83620000Y-65540000D02*
X85000000Y-65540000D01*
X83620000Y-66920000D02*
X83620000Y-65540000D01*
X83620000Y-68190000D02*
X83620000Y-73380000D01*
X83620000Y-68190000D02*
X86380000Y-68190000D01*
X83620000Y-73380000D02*
X86380000Y-73380000D01*
X86380000Y-68190000D02*
X86380000Y-73380000D01*
%TO.C,J14*%
X99620000Y-65540000D02*
X101000000Y-65540000D01*
X99620000Y-66920000D02*
X99620000Y-65540000D01*
X99620000Y-68190000D02*
X99620000Y-73380000D01*
X99620000Y-68190000D02*
X102380000Y-68190000D01*
X99620000Y-73380000D02*
X102380000Y-73380000D01*
X102380000Y-68190000D02*
X102380000Y-73380000D01*
%TO.C,J13*%
X95620000Y-65580000D02*
X97000000Y-65580000D01*
X95620000Y-66960000D02*
X95620000Y-65580000D01*
X95620000Y-68230000D02*
X95620000Y-73420000D01*
X95620000Y-68230000D02*
X98380000Y-68230000D01*
X95620000Y-73420000D02*
X98380000Y-73420000D01*
X98380000Y-68230000D02*
X98380000Y-73420000D01*
%TO.C,J12*%
X91620000Y-65580000D02*
X93000000Y-65580000D01*
X91620000Y-66960000D02*
X91620000Y-65580000D01*
X91620000Y-68230000D02*
X91620000Y-73420000D01*
X91620000Y-68230000D02*
X94380000Y-68230000D01*
X91620000Y-73420000D02*
X94380000Y-73420000D01*
X94380000Y-68230000D02*
X94380000Y-73420000D01*
%TO.C,J11*%
X79620000Y-65540000D02*
X81000000Y-65540000D01*
X79620000Y-66920000D02*
X79620000Y-65540000D01*
X79620000Y-68190000D02*
X79620000Y-73380000D01*
X79620000Y-68190000D02*
X82380000Y-68190000D01*
X79620000Y-73380000D02*
X82380000Y-73380000D01*
X82380000Y-68190000D02*
X82380000Y-73380000D01*
%TO.C,J9*%
X71620000Y-65540000D02*
X73000000Y-65540000D01*
X71620000Y-66920000D02*
X71620000Y-65540000D01*
X71620000Y-68190000D02*
X71620000Y-73380000D01*
X71620000Y-68190000D02*
X74380000Y-68190000D01*
X71620000Y-73380000D02*
X74380000Y-73380000D01*
X74380000Y-68190000D02*
X74380000Y-73380000D01*
%TO.C,J8*%
X87620000Y-78620000D02*
X89000000Y-78620000D01*
X87620000Y-80000000D02*
X87620000Y-78620000D01*
X87620000Y-81270000D02*
X87620000Y-81380000D01*
X87620000Y-81270000D02*
X90380000Y-81270000D01*
X87620000Y-81380000D02*
X90380000Y-81380000D01*
X90380000Y-81270000D02*
X90380000Y-81380000D01*
%TO.C,J7*%
X102380000Y-81270000D02*
X102380000Y-81380000D01*
X99620000Y-81380000D02*
X102380000Y-81380000D01*
X99620000Y-81270000D02*
X102380000Y-81270000D01*
X99620000Y-81270000D02*
X99620000Y-81380000D01*
X99620000Y-80000000D02*
X99620000Y-78620000D01*
X99620000Y-78620000D02*
X101000000Y-78620000D01*
%TO.C,J6*%
X99620000Y-85120000D02*
X101000000Y-85120000D01*
X99620000Y-86500000D02*
X99620000Y-85120000D01*
X99620000Y-87770000D02*
X99620000Y-87880000D01*
X99620000Y-87770000D02*
X102380000Y-87770000D01*
X99620000Y-87880000D02*
X102380000Y-87880000D01*
X102380000Y-87770000D02*
X102380000Y-87880000D01*
%TO.C,J5*%
X87620000Y-85120000D02*
X89000000Y-85120000D01*
X87620000Y-86500000D02*
X87620000Y-85120000D01*
X87620000Y-87770000D02*
X87620000Y-87880000D01*
X87620000Y-87770000D02*
X90380000Y-87770000D01*
X87620000Y-87880000D02*
X90380000Y-87880000D01*
X90380000Y-87770000D02*
X90380000Y-87880000D01*
%TO.C,J3*%
X93620000Y-85120000D02*
X95000000Y-85120000D01*
X93620000Y-86500000D02*
X93620000Y-85120000D01*
X93620000Y-87770000D02*
X93620000Y-87880000D01*
X93620000Y-87770000D02*
X96380000Y-87770000D01*
X93620000Y-87880000D02*
X96380000Y-87880000D01*
X96380000Y-87770000D02*
X96380000Y-87880000D01*
%TO.C,J2*%
X81620000Y-85120000D02*
X83000000Y-85120000D01*
X81620000Y-86500000D02*
X81620000Y-85120000D01*
X81620000Y-87770000D02*
X81620000Y-87880000D01*
X81620000Y-87770000D02*
X84380000Y-87770000D01*
X81620000Y-87880000D02*
X84380000Y-87880000D01*
X84380000Y-87770000D02*
X84380000Y-87880000D01*
%TO.C,J1*%
X93620000Y-78620000D02*
X95000000Y-78620000D01*
X93620000Y-80000000D02*
X93620000Y-78620000D01*
X93620000Y-81270000D02*
X93620000Y-81380000D01*
X93620000Y-81270000D02*
X96380000Y-81270000D01*
X93620000Y-81380000D02*
X96380000Y-81380000D01*
X96380000Y-81270000D02*
X96380000Y-81380000D01*
%TO.C,J10*%
X75620000Y-65540000D02*
X77000000Y-65540000D01*
X75620000Y-66920000D02*
X75620000Y-65540000D01*
X75620000Y-68190000D02*
X75620000Y-73380000D01*
X75620000Y-68190000D02*
X78380000Y-68190000D01*
X75620000Y-73380000D02*
X78380000Y-73380000D01*
X78380000Y-68190000D02*
X78380000Y-73380000D01*
%TD*%
M02*
